PathFileType	4	(X/Y/Z)	C:\Git\research_data\torsion_deformities_healthy_kinematics\simulations\TD07\pre\static_01\markers_HJC.trc
DataRate	CameraRate	NumFrames	NumMarkers	Units	OrigDataRate	OrigDataStartFrame	OrigNumFrames
200	200	9	40	mm	200	61	120
Frame#	Time	C7			T10			CLAV			STRN			RBAK			LASI			RASI			SACR			RT1			RT2			RT3			RKNE			RS1			RS2			RS3			RANK			RHEE			RTOE			RM5D			LT1			LT2			LT3			LKNE			LS1			LS2			LS3			LANK			LHEE			LTOE			LM5D			RHJC			LHJC			LKNM			LANM			RKNM			RANM			LKJC			LAJC			RKJC			RAJC		
		X1	Y1	Z1	X2	Y2	Z2	X3	Y3	Z3	X4	Y4	Z4	X5	Y5	Z5	X6	Y6	Z6	X7	Y7	Z7	X8	Y8	Z8	X9	Y9	Z9	X10	Y10	Z10	X11	Y11	Z11	X12	Y12	Z12	X13	Y13	Z13	X14	Y14	Z14	X15	Y15	Z15	X16	Y16	Z16	X17	Y17	Z17	X18	Y18	Z18	X19	Y19	Z19	X20	Y20	Z20	X21	Y21	Z21	X22	Y22	Z22	X23	Y23	Z23	X24	Y24	Z24	X25	Y25	Z25	X26	Y26	Z26	X27	Y27	Z27	X28	Y28	Z28	X29	Y29	Z29	X30	Y30	Z30	X31	Y31	Z31	X32	Y32	Z32	X33	Y33	Z33	X34	Y34	Z34	X35	Y35	Z35	X36	Y36	Z36	X37	Y37	Z37	X38	Y38	Z38	X39	Y39	Z39	X40	Y40	Z40	

61	0.300000	653.897888	1228.149170	348.448334	662.975342	1004.836609	345.056763	668.408752	1200.335083	221.914429	669.316711	1068.072021	153.660263	756.367065	1095.989136	359.851776	546.939331	797.263611	207.838074	802.801514	833.182922	199.184448	672.725220	853.858887	357.384155	864.969177	607.345032	310.067688	862.520020	546.969910	337.874603	875.413452	545.742554	288.917206	881.469116	442.355804	299.702148	915.716736	350.405975	351.960876	922.208862	287.342529	377.006470	937.798401	293.085205	326.840240	962.290771	87.339409	321.957611	922.985352	45.919952	358.851776	978.904846	47.617180	167.483368	1003.114746	34.422531	257.771851	482.184174	615.600525	255.642563	472.859192	559.509827	291.137787	481.969360	551.073975	240.625214	452.738312	421.932343	305.019653	400.797974	310.159515	318.967926	386.073608	255.449905	353.558838	381.277100	248.744568	302.898376	348.847839	71.214157	335.054474	387.183716	43.297951	357.631683	297.876404	42.687695	178.701889	286.237854	29.737106	273.351440	779.092780	754.985736	268.411740	595.773619	729.250404	274.611856	542.131653	383.219452	261.752197	407.296021	67.518051	271.892395	792.629761	404.782318	268.328003	888.377380	74.999557	278.366180	497.434982	402.575897	283.385925	378.071930	69.366104	303.473434	837.049438	423.569061	284.015076	925.334076	81.169483	300.161896	
62	0.305000	653.885254	1228.174194	348.420624	663.003174	1004.842590	345.047638	668.382507	1200.343872	221.878860	669.274841	1068.084595	153.622192	756.375610	1096.006104	359.808624	546.922241	797.274658	207.863724	802.782776	833.179871	199.152985	672.742798	853.861145	357.379700	864.954590	607.351562	310.039581	862.490479	546.977356	337.882446	875.407043	545.744934	288.891388	881.462280	442.360474	299.689758	915.717712	350.409210	351.951141	922.210876	287.350586	376.992828	937.796204	293.090515	326.830017	962.289429	87.341614	321.956299	922.985596	45.919930	358.852081	978.903015	47.615700	167.484024	1003.116638	34.423073	257.767731	482.170990	615.607544	255.664368	472.850250	559.513733	291.155975	481.946472	551.084900	240.640930	452.731964	421.934387	305.023254	400.794067	310.159973	318.970215	386.073944	255.451828	353.557587	381.274597	248.744934	302.900024	348.853271	71.214050	335.053711	387.186218	43.298401	357.630310	297.875031	42.687099	178.701797	286.238861	29.737179	273.351410	779.085534	754.983858	268.384346	595.767460	729.258615	274.625387	542.123840	383.224823	261.752869	407.297180	67.518250	271.890991	792.621155	404.780945	268.325867	888.375854	74.998955	278.367645	497.427902	402.579605	283.388062	378.075226	69.366150	303.472351	837.041718	423.570709	284.007812	925.332642	81.170284	300.161972	
63	0.310000	653.873291	1228.198608	348.392914	663.031128	1004.848450	345.038025	668.356445	1200.352661	221.843216	669.232239	1068.097290	153.583817	756.384033	1096.021851	359.764771	546.904785	797.285645	207.888199	802.763550	833.176880	199.119232	672.760742	853.863220	357.373535	864.940002	607.358276	310.009521	862.461304	546.984863	337.888458	875.400513	545.747253	288.863739	881.455444	442.365173	299.675934	915.718506	350.412659	351.939972	922.212708	287.359192	376.978424	937.794006	293.095764	326.819000	962.287842	87.343849	321.955017	922.985779	45.919918	358.852295	978.901245	47.614105	167.484680	1003.118713	34.423618	257.763336	482.157715	615.614563	255.685135	472.841370	559.517700	291.173126	481.923035	551.096008	240.655441	452.725708	421.936462	305.026093	400.790253	310.160431	318.971954	386.074341	255.453720	353.556030	381.272156	248.745285	302.901276	348.858765	71.213997	335.052887	387.188721	43.298946	357.628937	297.873688	42.686508	178.701675	286.239868	29.737305	273.351349	779.078157	754.981959	268.354662	595.761255	729.266717	274.637425	542.116028	383.230072	261.752655	407.298340	67.518364	271.889526	792.612549	404.779541	268.322601	888.374207	74.998283	278.369019	497.420868	402.583267	283.389374	378.078552	69.366180	303.471207	837.033997	423.572357	283.999268	925.331024	81.171066	300.162018	
64	0.315000	653.862061	1228.222656	348.365234	663.059082	1004.854187	345.027893	668.330505	1200.361450	221.807510	669.188843	1068.109985	153.545151	756.392334	1096.036621	359.720184	546.886963	797.296631	207.911499	802.743896	833.173950	199.083206	672.779175	853.865112	357.365631	864.925415	607.365051	309.977509	862.432678	546.992432	337.892548	875.393799	545.749634	288.834290	881.448608	442.369904	299.660767	915.718994	350.416321	351.927338	922.214294	287.368347	376.963226	937.791748	293.101013	326.807159	962.286072	87.346107	321.953705	922.985840	45.919910	358.852417	978.899414	47.612392	167.485336	1003.120911	34.424164	257.758667	482.144409	615.621521	255.704834	472.832581	559.521667	291.189240	481.899017	551.107300	240.668747	452.719543	421.938507	305.028198	400.786530	310.160950	318.973206	386.074738	255.455582	353.554199	381.269745	248.745636	302.902161	348.864380	71.213997	335.051971	387.191193	43.299591	357.627625	297.872345	42.685928	178.701523	286.240906	29.737486	273.351227	779.070680	754.980012	268.322679	595.754993	729.274727	274.647950	542.108276	383.235199	261.751526	407.299591	67.518417	271.887939	792.603943	404.778107	268.318237	888.372375	74.997551	278.370270	497.413910	402.586853	283.389862	378.081985	69.366207	303.469955	837.026276	423.574005	283.989502	925.329224	81.171829	300.161987	
65	0.320000	653.851501	1228.246216	348.337555	663.087158	1004.859802	345.017242	668.304749	1200.370117	221.771759	669.144653	1068.122681	153.506165	756.400574	1096.050293	359.674866	546.868774	797.307495	207.933609	802.723877	833.171021	199.044891	672.797974	853.866882	357.356018	864.910828	607.371887	309.943542	862.404480	547.000061	337.894592	875.387024	545.751953	288.803040	881.441711	442.374634	299.644165	915.719238	350.420227	351.913208	922.215637	287.378113	376.947235	937.789490	293.106201	326.794556	962.284119	87.348389	321.952393	922.985901	45.919910	358.852448	978.897522	47.610573	167.485977	1003.123230	34.424717	257.753662	482.131012	615.628357	255.723480	472.823853	559.525574	291.204376	481.874420	551.118713	240.680862	452.713440	421.940552	305.029510	400.782898	310.161499	318.973969	386.075226	255.457382	353.552032	381.267426	248.745956	302.902679	348.870026	71.214050	335.050995	387.193695	43.300331	357.626312	297.870972	42.685360	178.701324	286.241974	29.737722	273.351105	779.063163	754.978000	268.288478	595.748696	729.282585	274.657046	542.100525	383.240204	261.749512	407.300842	67.518387	271.886292	792.595276	404.776672	268.312775	888.370422	74.996742	278.371429	497.406982	402.590378	283.389511	378.085434	69.366219	303.468643	837.018494	423.575653	283.978470	925.327271	81.172565	300.161911	
66	0.325000	653.841675	1228.269287	348.309906	663.115234	1004.865234	345.006104	668.279175	1200.378662	221.735977	669.099731	1068.135498	153.466888	756.408691	1096.062866	359.628876	546.850220	797.318359	207.954559	802.703369	833.168152	199.004288	672.817200	853.868408	357.344696	864.896301	607.378845	309.907623	862.376892	547.007690	337.894592	875.380066	545.754211	288.770020	881.434875	442.379395	299.626190	915.719238	350.424347	351.897614	922.216736	287.388428	376.930420	937.787231	293.111359	326.781158	962.281982	87.350693	321.951050	922.985840	45.919918	358.852417	978.895691	47.608635	167.486618	1003.125732	34.425274	257.748352	482.117584	615.635193	255.741074	472.815216	559.529480	291.218475	481.849274	551.130249	240.691788	452.707397	421.942627	305.030060	400.779358	310.162079	318.974182	386.075714	255.459152	353.549591	381.265167	248.746262	302.902832	348.875793	71.214157	335.049957	387.196167	43.301167	357.625031	297.869598	42.684795	178.701111	286.243042	29.738014	273.350922	779.055506	754.975933	268.251937	595.742342	729.290344	274.664610	542.092773	383.245087	261.746613	407.302185	67.518288	271.884521	792.586670	404.775208	268.306183	888.368286	74.995872	278.372467	497.400085	402.593857	283.388336	378.088989	69.366222	303.467239	837.010773	423.577301	283.966187	925.325134	81.173283	300.161758	
67	0.330000	653.832520	1228.291870	348.282288	663.143372	1004.870544	344.994446	668.253723	1200.387207	221.700195	669.054077	1068.148438	153.427307	756.416748	1096.074341	359.582153	546.831299	797.329163	207.974335	802.682495	833.165344	198.961411	672.836792	853.869812	357.331665	864.881714	607.385864	309.869751	862.349915	547.015442	337.892395	875.372986	545.756470	288.735168	881.427979	442.384186	299.606812	915.718994	350.428711	351.880554	922.217590	287.399323	376.912842	937.784912	293.116486	326.766937	962.279663	87.353012	321.949707	922.985718	45.919933	358.852295	978.893799	47.606583	167.487259	1003.128357	34.425835	257.742767	482.104065	615.641907	255.757599	472.806671	559.533447	291.231567	481.823547	551.141968	240.701492	452.701447	421.944672	305.029877	400.775909	310.162689	318.973907	386.076263	255.460876	353.546844	381.262939	248.746552	302.902618	348.881622	71.214325	335.048859	387.198639	43.302101	357.623779	297.868225	42.684242	178.700836	286.244141	29.738359	273.350708	779.047812	754.973837	268.213161	595.735956	729.297987	274.670727	542.085083	383.249878	261.742828	407.303558	67.518112	271.882690	792.578003	404.773712	268.298492	888.366028	74.994934	278.373383	497.393265	402.597275	283.386353	378.092590	69.366219	303.465775	837.002991	423.578949	283.952652	925.322845	81.173973	300.161545	
68	0.335000	653.824097	1228.313965	348.254669	663.171570	1004.875732	344.982300	668.228455	1200.395752	221.664429	669.007568	1068.161377	153.387405	756.424744	1096.084717	359.534729	546.812073	797.339966	207.992920	802.661133	833.162537	198.916245	672.856873	853.871033	357.316895	864.867188	607.393005	309.829895	862.323608	547.023254	337.887970	875.365784	545.758728	288.698547	881.421082	442.388977	299.586060	915.718445	350.433258	351.862030	922.218201	287.410767	376.894470	937.782593	293.121582	326.751923	962.277161	87.355362	321.948364	922.985535	45.919960	358.852051	978.891846	47.604420	167.487885	1003.131104	34.426399	257.736877	482.090515	615.648560	255.773071	472.798218	559.537354	291.243622	481.797272	551.153809	240.710007	452.695557	421.946716	305.028931	400.772583	310.163330	318.973114	386.076843	255.462570	353.543823	381.260773	248.746826	302.902008	348.887543	71.214539	335.047668	387.201111	43.303131	357.622559	297.866852	42.683701	178.700546	286.245270	29.738760	273.350464	779.039959	754.971688	268.172078	595.729534	729.305576	274.675324	542.077454	383.254547	261.738129	407.304962	67.517868	271.880737	792.569336	404.772217	268.289703	888.363647	74.993919	278.374207	497.386505	402.600632	283.383530	378.096252	69.366203	303.464203	836.995209	423.580597	283.937881	925.320404	81.174641	300.161285	
69	0.340000	653.816406	1228.335571	348.227051	663.199768	1004.880737	344.969635	668.203369	1200.404175	221.628708	668.960388	1068.174316	153.347229	756.432556	1096.093994	359.486572	546.792480	797.350647	208.010330	802.639404	833.159729	198.868790	672.877319	853.872131	357.300446	864.852661	607.400269	309.788116	862.298035	547.031067	337.881226	875.358398	545.760986	288.660095	881.414185	442.393829	299.563904	915.717712	350.438080	351.842010	922.218567	287.422791	376.875305	937.780212	293.126648	326.736145	962.274475	87.357735	321.946991	922.985291	45.919991	358.851746	978.889954	47.602142	167.488510	1003.133972	34.426968	257.730652	482.076874	615.655212	255.787491	472.789825	559.541260	291.254669	481.770386	551.165833	240.717331	452.689758	421.948761	305.027222	400.769318	310.164001	318.971802	386.077484	255.464203	353.540466	381.258698	248.747086	302.901031	348.893524	71.214806	335.046448	387.203552	43.304260	357.621368	297.865479	42.683167	178.700211	286.246399	29.739216	273.350159	779.032069	754.969473	268.128783	595.723080	729.313012	274.678506	542.069824	383.259094	261.732544	407.306427	67.517548	271.878693	792.560608	404.770691	268.279785	888.361084	74.992844	278.374908	497.379791	402.603928	283.379883	378.099976	69.366177	303.462570	836.987396	423.582260	283.921844	925.317780	81.175289	300.160950	
